<?xml version="1.0" encoding="utf-8"?>
<!-- Generator: Adobe Illustrator 24.1.3, SVG Export Plug-In . SVG Version: 6.00 Build 0)  -->
<svg version="1.1" id="Layer_1" xmlns="http://www.w3.org/2000/svg" xmlns:xlink="http://www.w3.org/1999/xlink" x="0px" y="0px"
	 viewBox="0 0 1440 800" style="enable-background:new 0 0 1440 800;" xml:space="preserve">
<style type="text/css">
	.st0{fill:url(#SVGID_1_);}
	.st1{fill:url(#SVGID_2_);}
	.st2{fill:#FEC012;}
	.st3{fill:#84CFCA;}
	.st4{fill:#EF482E;}
	.st5{fill:url(#SVGID_3_);}
	.st6{fill:url(#SVGID_4_);}
</style>
<g>
	<radialGradient id="SVGID_1_" cx="1530.5319" cy="450.7021" r="375.5883" gradientUnits="userSpaceOnUse">
		<stop  offset="0.5082" style="stop-color:#EF492A"/>
		<stop  offset="1" style="stop-color:#FEC012"/>
	</radialGradient>
	<path class="st0" d="M1440,0v449.17c-140.02,0-179.33-115.87-174.49-193.25c3.88-62.06,3.89-96.22-40.96-119.24
		c-19.06-9.79-46.23-17.56-84.66-24.62C1053.86,96.27,1036.28,37.37,1034.09,0H1440z"/>
	<linearGradient id="SVGID_2_" gradientUnits="userSpaceOnUse" x1="1255.1448" y1="-186.2943" x2="1238.8043" y2="132.344">
		<stop  offset="0" style="stop-color:#FFF33B"/>
		<stop  offset="0.0595" style="stop-color:#FFE029"/>
		<stop  offset="0.1303" style="stop-color:#FFD217"/>
		<stop  offset="0.2032" style="stop-color:#FEC90E"/>
		<stop  offset="0.2809" style="stop-color:#FDC70C"/>
		<stop  offset="0.6685" style="stop-color:#F3903F"/>
		<stop  offset="0.8876" style="stop-color:#ED683C"/>
		<stop  offset="1" style="stop-color:#E93E3A"/>
	</linearGradient>
	<path class="st1" d="M1440,0v333.3c-40.56-176.56-82.54-201.24-173.73-216.9c-48.78-8.38-87.95,2.72-126.38-4.34
		C1053.86,96.27,1036.28,37.37,1034.09,0H1440z"/>
	<g>
		<path class="st2" d="M1374.96,398.83c-10.05-0.17-13.3-3.61-18.79-9.61c-3.39-3.71-7.87-4.38-12.86-4.43c-0.13,0-0.26-0.01-0.39,0
			c-2.95-0.03-6.09,0.15-9.28,0.03c-8.77-0.33-10.52-8.48-23.65-6.07c-6.27,1.15-9.89,4.27-12.22,7.35c-1.6,2.1-2.59,4.17-3.43,5.56
			c2.92,1.43,7.39,2.9,12.33,1.99c0.48-0.08,0.94-0.18,1.39-0.27c1.47-0.29,2.83-0.58,4.06-0.85c6.91-1.5,11.47-2.49,16.16,1.73
			c4.9,4.41,6.38,5.74,16.71,3.6c0.01,0,0.01,0,0.01,0c5.97-1.23,12.65,0.85,17.45,5.41c2.29,2.18,3.84,4.62,4.51,7.08
			c0.41,1.45,0.51,2.89,0.3,4.29l-0.21,1.41l-1.39-0.35c-0.05-0.01-5.6-1.31-8.95,2.09c-0.8,0.81-1.86,2.31-3.08,4.04
			c-2.94,4.17-7.19,10.19-12.96,13.71c-2.85,1.75-6.07,2.88-9.68,2.88c-0.14,0-0.29,0-0.43-0.01c-3.71-0.09-6.8-1.11-9.51-2.59
			c-3.16-1.71-5.78-4.03-8.24-6.19c-2.2-1.95-4.32-3.82-6.61-5.04v-0.01c-1.22-0.65-2.47-1.12-3.82-1.32
			c-9.08-1.34-13.58,0.4-13.62,0.42l-2.52,1l0.79-2.59c0.42-1.36,4.25-13.28,10.62-14.21c2.36-0.35,4.47,0.18,6.51,0.69
			c1.69,0.42,3.32,0.83,5.09,0.74c1.67-0.07,3.45-0.58,5.51-1.9l0.21-0.14c4.89-3.15,8.75-5.64,12.07-4.43
			c2.09,0.76,3.59,2.83,4.72,6.53c1.91,6.23,1.78,10.52-0.37,12.78c-1.61,1.69-4.16,2.12-7.6,1.24c-4.9-1.24-6.48-4.81-6.32-7.74
			c0.15-2.85,1.85-5.14,4.05-5.45c2.45-0.35,4.53,0.42,5.43,2c0.79,1.38,0.53,3.09-0.74,4.68l-2.04-1.62
			c0.27-0.34,0.85-1.18,0.51-1.76c-0.28-0.49-1.28-0.93-2.8-0.72c-0.92,0.13-1.75,1.48-1.82,3.01c-0.05,0.92,0.12,4.01,4.37,5.08
			c2.45,0.63,4.15,0.45,5.07-0.51c1.41-1.48,1.33-5.12-0.24-10.23c-0.86-2.81-1.88-4.39-3.12-4.85c-2.1-0.76-5.65,1.52-9.77,4.17
			l-0.21,0.14c-2.99,1.93-5.56,2.42-7.87,2.32c-1.71-0.07-3.28-0.46-4.77-0.83c-1.88-0.47-3.65-0.91-5.51-0.64
			c-3.26,0.47-6.21,6.33-7.7,10.15c2.41-0.44,6.53-0.79,12.44,0.08c1.11,0.16,2.16,0.46,3.15,0.87c3.15,1.28,5.82,3.65,8.62,6.11
			c4.43,3.91,9.02,7.95,16.09,8.13c0.12,0.01,0.25,0.01,0.37,0.01c9.58,0,16.14-9.3,20.51-15.49c1.33-1.9,2.4-3.4,3.35-4.36
			c3.18-3.23,7.6-3.28,9.91-3.04c-0.04-1.02-0.3-2.06-0.76-3.12c-0.68-1.6-1.82-3.2-3.34-4.64c-3.11-2.95-8.36-5.69-14.12-4.91
			c-0.34,0.04-0.68,0.1-1.03,0.17c-11.1,2.29-13.4,0.81-18.98-4.21c-3.69-3.32-7.3-2.54-13.86-1.12c-1.02,0.22-2.12,0.46-3.31,0.7
			c-0.72,0.14-1.46,0.29-2.23,0.43c-5.73,1.05-10.84-0.67-14.12-2.3c0,0,0.15-0.72-0.08-0.61c-2.42,1.08-6.15-1-12.72,8.39
			c-6.56,9.4-11.97,7.32-20.87,8.48c-8.9,1.17-9.98,14.05-9.98,14.05s14.02-5.91,20.95,3.13c6.93,9.03,10.81,7.15,20.51,5.48
			c9.7-1.66,6.49,2.16,20.34,11.7c13.85,9.53,25.33,6.26,31.26,0.55c4.94-4.75,11.57-9.01,18.98-12.48c1.48-0.7,2.99-1.35,4.52-1.99
			c1.73-0.71,3.2-1.42,4.49-2.16c3.07-1.78,5.09-3.74,7.12-6.28c1.63-2.04,3.26-4.45,5.46-7.46c6.1-8.31,14.61-6.66,14.61-6.66
			S1385.02,398.99,1374.96,398.83z"/>
	</g>
	<g>
		<path class="st2" d="M1324.44,323.97c-6.01-0.1-7.95-2.16-11.23-5.74c-2.03-2.21-4.7-2.62-7.68-2.65c-0.08,0-0.16,0-0.23,0
			c-1.76-0.02-3.64,0.09-5.55,0.02c-5.24-0.2-6.29-5.07-14.14-3.63c-3.75,0.69-5.91,2.55-7.31,4.39c-0.95,1.25-1.55,2.49-2.05,3.32
			c1.75,0.85,4.42,1.73,7.37,1.19c0.28-0.05,0.56-0.11,0.83-0.16c0.88-0.17,1.69-0.35,2.43-0.51c4.13-0.9,6.85-1.49,9.66,1.03
			c2.93,2.64,3.81,3.43,9.99,2.15c0,0,0,0,0.01,0c3.57-0.74,7.56,0.51,10.43,3.23c1.37,1.3,2.29,2.76,2.7,4.23
			c0.25,0.86,0.31,1.73,0.18,2.56l-0.13,0.84l-0.83-0.21c-0.03-0.01-3.35-0.78-5.35,1.25c-0.48,0.49-1.11,1.38-1.84,2.41
			c-1.76,2.49-4.3,6.09-7.75,8.19c-1.7,1.04-3.63,1.72-5.79,1.72c-0.09,0-0.17,0-0.26,0c-2.21-0.05-4.06-0.67-5.68-1.55
			c-1.89-1.02-3.46-2.41-4.92-3.7c-1.32-1.16-2.58-2.28-3.95-3.01v0c-0.73-0.39-1.48-0.67-2.28-0.79c-5.43-0.8-8.12,0.24-8.14,0.25
			l-1.51,0.6l0.47-1.55c0.25-0.81,2.54-7.94,6.35-8.49c1.41-0.21,2.67,0.11,3.89,0.41c1.01,0.25,1.99,0.49,3.04,0.44
			c1-0.04,2.06-0.35,3.29-1.14l0.12-0.08c2.92-1.88,5.23-3.37,7.21-2.65c1.25,0.46,2.14,1.69,2.82,3.9
			c1.14,3.72,1.07,6.29-0.22,7.64c-0.96,1.01-2.49,1.27-4.54,0.74c-2.93-0.74-3.87-2.88-3.78-4.63c0.09-1.7,1.11-3.07,2.42-3.26
			c1.46-0.21,2.71,0.25,3.25,1.19c0.47,0.83,0.32,1.85-0.44,2.79l-1.22-0.97c0.16-0.2,0.51-0.7,0.31-1.05
			c-0.17-0.3-0.77-0.56-1.67-0.43c-0.55,0.08-1.04,0.88-1.09,1.8c-0.03,0.55,0.07,2.4,2.61,3.04c1.46,0.37,2.48,0.27,3.03-0.3
			c0.84-0.89,0.79-3.06-0.14-6.11c-0.51-1.68-1.12-2.62-1.86-2.9c-1.25-0.46-3.38,0.91-5.84,2.5l-0.12,0.08
			c-1.79,1.15-3.32,1.45-4.7,1.39c-1.02-0.04-1.96-0.27-2.85-0.49c-1.12-0.28-2.18-0.54-3.29-0.38c-1.95,0.28-3.71,3.78-4.6,6.06
			c1.44-0.26,3.9-0.47,7.44,0.05c0.66,0.1,1.29,0.28,1.88,0.52c1.88,0.77,3.48,2.18,5.15,3.65c2.65,2.34,5.39,4.75,9.62,4.86
			c0.07,0,0.15,0,0.22,0c5.73,0,9.65-5.56,12.26-9.26c0.8-1.13,1.43-2.03,2-2.61c1.9-1.93,4.54-1.96,5.92-1.82
			c-0.02-0.61-0.18-1.23-0.45-1.86c-0.41-0.96-1.09-1.92-2-2.78c-1.86-1.76-5-3.4-8.44-2.93c-0.2,0.02-0.41,0.06-0.61,0.1
			c-6.63,1.37-8.01,0.48-11.35-2.52c-2.21-1.99-4.36-1.52-8.29-0.67c-0.61,0.13-1.27,0.27-1.98,0.42c-0.43,0.09-0.87,0.18-1.33,0.26
			c-3.43,0.63-6.48-0.4-8.44-1.37c0,0,0.09-0.43-0.05-0.37c-1.44,0.65-3.68-0.6-7.61,5.02c-3.92,5.62-7.15,4.38-12.47,5.07
			c-5.32,0.7-5.96,8.4-5.96,8.4s8.38-3.53,12.52,1.87c4.14,5.4,6.46,4.27,12.26,3.28c5.8-0.99,3.88,1.29,12.16,6.99
			c8.28,5.7,15.14,3.74,18.68,0.33c2.95-2.84,6.92-5.39,11.34-7.46c0.88-0.42,1.79-0.81,2.7-1.19c1.04-0.42,1.92-0.85,2.68-1.29
			c1.84-1.06,3.04-2.23,4.25-3.76c0.97-1.22,1.95-2.66,3.27-4.46c3.65-4.97,8.73-3.98,8.73-3.98S1330.45,324.07,1324.44,323.97z"/>
	</g>
	<g>
		<path class="st2" d="M1172.38,77.28c2.76-2.13,5.94-4.7,8.66-7.06c1.18-1.02,1.06-2.88-0.24-3.73c-2.77-1.82-5.83-3.69-8.93-5.57
			c-1.58-0.96-3.6,0.21-3.56,2.06l0.29,12.49C1168.65,77.39,1170.86,78.45,1172.38,77.28z"/>
		<path class="st2" d="M1195.18,77.28c2.76-2.13,5.94-4.7,8.66-7.06c1.18-1.02,1.06-2.88-0.24-3.73c-2.77-1.82-5.83-3.69-8.93-5.57
			c-1.58-0.96-3.6,0.21-3.56,2.06l0.29,12.49C1191.45,77.39,1193.66,78.45,1195.18,77.28z"/>
		<path class="st2" d="M1217.98,77.28c2.76-2.13,5.94-4.7,8.66-7.06c1.18-1.02,1.06-2.88-0.24-3.73c-2.77-1.82-5.83-3.69-8.93-5.57
			c-1.58-0.96-3.61,0.21-3.56,2.06l0.29,12.49C1214.24,77.39,1216.45,78.45,1217.98,77.28z"/>
		<path class="st2" d="M1240.77,77.28c2.76-2.13,5.94-4.7,8.66-7.06c1.18-1.02,1.06-2.88-0.24-3.73c-2.77-1.82-5.83-3.69-8.93-5.57
			c-1.58-0.96-3.61,0.21-3.56,2.06l0.29,12.49C1237.04,77.39,1239.25,78.45,1240.77,77.28z"/>
		<path class="st2" d="M1263.57,77.28c2.76-2.13,5.94-4.7,8.66-7.06c1.18-1.02,1.06-2.88-0.24-3.73c-2.77-1.82-5.83-3.69-8.93-5.57
			c-1.58-0.96-3.61,0.21-3.56,2.06l0.29,12.49C1259.84,77.39,1262.04,78.45,1263.57,77.28z"/>
		<path class="st2" d="M1286.36,77.28c2.76-2.13,5.94-4.7,8.66-7.06c1.18-1.02,1.06-2.88-0.24-3.73c-2.77-1.82-5.83-3.69-8.93-5.57
			c-1.58-0.96-3.61,0.21-3.56,2.06l0.29,12.49C1282.63,77.39,1284.84,78.45,1286.36,77.28z"/>
		<path class="st2" d="M1309.16,77.28c2.76-2.13,5.94-4.7,8.66-7.06c1.18-1.02,1.06-2.88-0.24-3.73c-2.77-1.82-5.83-3.69-8.93-5.57
			c-1.58-0.96-3.6,0.21-3.56,2.06l0.29,12.49C1305.43,77.39,1307.64,78.45,1309.16,77.28z"/>
		<path class="st2" d="M1331.95,77.28c2.76-2.13,5.94-4.7,8.66-7.06c1.18-1.02,1.06-2.88-0.24-3.73c-2.77-1.82-5.83-3.69-8.93-5.57
			c-1.58-0.96-3.6,0.21-3.56,2.06l0.29,12.49C1328.22,77.39,1330.43,78.45,1331.95,77.28z"/>
		<path class="st2" d="M1354.75,77.28c2.76-2.13,5.94-4.7,8.66-7.06c1.18-1.02,1.06-2.88-0.24-3.73c-2.77-1.82-5.83-3.69-8.93-5.57
			c-1.58-0.96-3.61,0.21-3.56,2.06l0.29,12.49C1351.02,77.39,1353.23,78.45,1354.75,77.28z"/>
		<path class="st2" d="M1377.55,77.28c2.76-2.13,5.94-4.7,8.66-7.06c1.18-1.02,1.06-2.88-0.24-3.73c-2.77-1.82-5.83-3.69-8.93-5.57
			c-1.58-0.96-3.61,0.21-3.56,2.06l0.29,12.49C1373.81,77.39,1376.02,78.45,1377.55,77.28z"/>
	</g>
</g>
<g>
	<g>
		<g>
			<path d="M150.82,242.83c-1.98-0.32-3.85-1.2-5.54-2.63c-2.48-2.1-3.86-4.66-3.98-7.42c-0.17-3.91,2.23-6.77,3.27-7.82
				c1.79-1.79,4.53-2.67,7.47-2.43c1.23-7.3,3.05-17.57,4.03-20.38c1.77-5.03,8.34-6.09,15.5-6.81c1.74-0.17,3.52-0.32,5.25-0.45
				l0.21-0.02c1.56-0.12,3.08-0.25,4.45-0.39c1.52-0.16,2.72-0.33,3.69-0.46c1.81-0.26,2.88-0.41,4.04-0.22
				c1.46,0.23,2.71,1,3.51,2.15c1.35,1.92,0.96,3.95,0.62,5.74l-0.17,0.91c-0.26,1.44-0.75,4.99-1.32,9.11l-0.03,0.19
				c-0.96,6.96-2.16,15.62-2.95,19.13c-0.24,1.05-0.47,1.84-0.87,2.55c-1.31,2.39-5.43,6.68-11.55,5.71
				c-1.62-0.26-3.23-0.88-4.77-1.84c-4.01-2.5-5.57-7.24-3.87-11.78c1.44-3.86,5.41-7.36,11.02-6.47c0.01,0,0.03,0,0.04,0.01
				c0.23-1.26,0.51-2.62,0.79-3.95c0.07-0.32,0.14-0.66,0.2-1c-2.58,0.32-5.53,0.72-7.4,0.97l-0.2,0.03
				c-1.85,0.25-3.47,0.46-4.55,0.6c0,0-1.85,0.22-1.94,0.23c-0.08,0.57-0.18,1.2-0.27,1.84c-2.14,14.79-2.77,17.77-3.44,19.17
				C160.66,239.99,156.26,243.69,150.82,242.83z"/>
			<path class="st3" d="M190.72,202.12l0.17-0.91c0.31-1.62,0.53-2.79-0.21-3.85c-0.29-0.42-0.86-0.96-1.86-1.12
				c-0.8-0.13-1.67,0-3.27,0.22c-0.99,0.14-2.23,0.32-3.82,0.48c-1.46,0.15-3.06,0.28-4.72,0.41c-1.71,0.14-3.48,0.28-5.2,0.45
				c-7.42,0.75-12.25,1.87-13.4,5.16c-1.09,3.11-3.43,16.97-4.35,22.5c-0.48-0.16-0.99-0.29-1.51-0.37
				c-2.49-0.4-4.81,0.21-6.22,1.62c-0.81,0.82-2.68,3.03-2.55,5.96c0.09,2.07,1.14,3.96,3.1,5.62c1.34,1.13,2.8,1.83,4.33,2.08
				c4.13,0.66,7.57-2.22,8.6-4.36c0.59-1.24,1.38-5.73,3.22-18.46c0.21-1.49,0.42-2.91,0.54-3.71c0.51-0.09,1.32-0.18,2.16-0.28
				l1.66-0.2c1.11-0.14,2.81-0.37,4.73-0.62c3.04-0.41,8.05-1.08,10.82-1.37c-0.22,1.27-0.57,2.98-0.85,4.37
				c-0.43,2.08-0.87,4.24-1.12,5.93c-0.04,0.26-0.07,0.48-0.11,0.68c-0.2-0.08-0.41-0.16-0.64-0.24c-0.6-0.22-1.2-0.38-1.79-0.48
				c-4.22-0.67-7.21,1.97-8.3,4.88c-1.27,3.4-0.12,6.94,2.86,8.8c1.26,0.79,2.56,1.29,3.85,1.5c0,0,0,0,0,0
				c4.75,0.76,7.95-2.59,8.98-4.46c0.22-0.4,0.39-0.92,0.61-1.88c0.77-3.42,1.95-12.02,2.91-18.93
				C189.93,207.31,190.44,203.65,190.72,202.12z"/>
			<g>
				<path class="st2" d="M184.39,230.01c-0.15,0.66-0.29,1.12-0.4,1.32c-1.03,1.87-4.77,5.39-9.88,2.2
					c-5.12-3.19-1.34-11.98,5.38-9.46c0,0,1.32,0.46,1.7,0.82c0.33,0.31,0.98,1.21,1.56-1.31c0.1-0.43,0.19-0.96,0.29-1.61
					c0.65-4.46,2.77-12.56,2.03-12.83c-0.74-0.26-13.66,1.6-17.95,2.13c-2.9,0.36-4.29,0.46-4.96,0.78l0,0.01
					c-0.32,0.15-0.46,0.35-0.54,0.66c-0.24,0.94-2.81,20.48-3.72,22.38s-5.24,5.34-9.68,1.59c-4.44-3.75-1.46-7.45-0.42-8.5
					c1.34-1.35,3.92-1.34,5.73-0.68c1.81,0.67,2.07,1.4,2.25,0.33c0,0,3.32-20.56,4.59-24.18c0.8-2.27,5.95-3.19,11.63-3.77
					c3.38-0.34,6.96-0.55,9.93-0.86c7.95-0.82,7.55-1.93,6.71,2.71C187.91,205.89,185.6,224.64,184.39,230.01z"/>
				<path class="st2" d="M184.39,230.01c-0.15,0.66-0.29,1.12-0.4,1.32c-1.03,1.87-4.77,5.39-9.88,2.2
					c-5.12-3.19-1.34-11.98,5.38-9.46c0,0,1.32,0.46,1.7,0.82c0.33,0.31,0.98,1.21,1.56-1.31c0.35,0.91,0.52,1.76,0.47,2.46
					C183.14,227.24,183.63,228.63,184.39,230.01z"/>
				<path class="st4" d="M172.02,199.89c-0.8,1.13-1.99,2.09-3.53,2.64c-6.9,2.46-5.07,7.27-6.31,9.53l0,0.01
					c-0.32,0.15-0.46,0.35-0.54,0.66c-0.24,0.94-2.81,20.48-3.72,22.38s-5.24,5.34-9.68,1.59c-4.44-3.75-1.46-7.45-0.42-8.5
					c1.34-1.35,3.92-1.34,5.73-0.68c1.81,0.67,2.07,1.4,2.25,0.33c0,0,3.32-20.56,4.59-24.18
					C161.18,201.39,166.33,200.47,172.02,199.89z"/>
			</g>
		</g>
		<g>
			<path d="M135.22,185.78c-1.73-0.28-3.46-1.03-5.13-2.24c-2.67-1.97-4.74-6.06-3.35-10.8c1.7-5.81,6.7-7.79,10.62-7.16
				c0.33,0.05,0.64,0.12,0.92,0.2c0.88,0.25,1.74,0.64,2.55,1.15c0.45-0.63,0.92-1.29,1.41-1.97c8.19-11.38,9.48-11.94,10.74-12.47
				c0.76-0.32,1.92-0.72,3.28-0.5c1.3,0.21,2.44,0.91,3.19,1.98c1.22,1.74,0.88,3.57,0.72,4.44c-0.03,0.18-0.09,0.46-0.1,0.6
				l0.11,0.37c1.14,3.9,4.18,14.26-2.3,19.46c-1.89,1.52-3.03,2.43-5.13,2.1l-1.14-0.5l-1.61-1.26l-0.76-0.99
				c-0.26-0.61-0.37-1.19-0.38-1.72c-0.75,1.03-1.36,1.85-1.71,2.3c-0.15,0.19-0.32,0.43-0.51,0.68c-1.62,2.24-4.59,6.36-9.77,6.44
				C136.32,185.9,135.77,185.86,135.22,185.78z"/>
			<path class="st3" d="M136.83,183.4c3.93-0.06,6.33-3.39,7.76-5.38c0.22-0.3,0.42-0.58,0.6-0.81c0.4-0.5,1.12-1.49,2-2.7
				c1.2-1.64,3.52-4.84,5.16-6.84c0.37,0.75,0.84,1.7,1.39,3.16c0.13,0.35,0.09,1.3-1.65,3.77c-0.46,0.66-1.04,1.48-0.57,2.6
				l1.61,1.26c1,0.16,1.42-0.18,3.18-1.59c5.18-4.15,2.48-13.35,1.47-16.82l-0.14-0.48c-0.14-0.51-0.03-1.11,0.07-1.64
				c0.13-0.7,0.32-1.67-0.3-2.55c-0.36-0.52-0.91-0.86-1.55-0.96c-0.72-0.12-1.4,0.12-1.91,0.33c-0.72,0.31-1.91,0.82-9.7,11.64
				c-1.1,1.53-2.13,2.98-2.96,4.16c-0.89-1.02-2.21-1.98-3.7-2.4c-0.19-0.06-0.4-0.1-0.63-0.14c-2.88-0.46-6.56,1.04-7.84,5.4
				c-1.2,4.09,0.95,7,2.42,8.08c1.35,0.98,2.72,1.59,4.06,1.8C136.02,183.38,136.43,183.41,136.83,183.4z"/>
			<g>
				<path class="st2" d="M155,175.26c-4.35,3.5,1.99-1.77,0.7-5.16c-1.28-3.38-2.09-4.13-2.44-5.81c-0.35-1.69-8.02,9.49-9.71,11.62
					c-1.26,1.58-3.34,5.34-6.75,5.39c-1.17,0.02-2.5-0.39-4.02-1.49c0,0-2.74-2.02-1.64-5.8c1.11-3.78,4.32-4.28,5.88-3.83
					c1.56,0.44,2.9,1.74,3.33,2.7c0.42,0.96,0.21,2.4,0.75,1.63c0,0,2.2-3.19,4.86-6.88c3.46-4.81,7.7-10.45,8.82-10.93
					c1.99-0.84,0.2,1.2,0.84,3.47C156.27,162.45,159.36,171.77,155,175.26z"/>
				<path class="st4" d="M146.03,168.48c-1.5,6.04-2.99,6.65-6.48,9.04c-1.44,0.99-2.27,2.43-2.76,3.78
					c-1.17,0.02-2.5-0.39-4.02-1.49c0,0-2.74-2.02-1.64-5.8c1.11-3.78,4.32-4.28,5.88-3.83c1.56,0.44,2.9,1.74,3.33,2.7
					c0.42,0.96,0.21,2.4,0.75,1.63c0,0,2.2-3.19,4.86-6.88C146.07,167.91,146.1,168.2,146.03,168.48z"/>
			</g>
		</g>
		<g>
			<path d="M193.95,282.1c-2.77-0.44-5.06-2.09-6.46-4.64c-2.64-4.82-0.57-9.73,2.95-11.69c0.46-0.26,0.96-0.48,1.48-0.65
				c-0.06-0.35-0.12-0.72-0.18-1.08c-1.84-11.29-1.41-12.36-0.92-13.58c1.2-2.95,3.59-3.69,5.44-3.39c2.11,0.34,3.15,1.86,3.59,2.51
				c0.04,0.06,0.08,0.13,0.12,0.19l0.1,0.05c2.99,1.63,10.95,5.98,10.16,13.19c-0.22,1.98-0.37,3.42-1.99,4.66l-0.9,0.44l-1.61,0.41
				l-1,0.04c-0.19-0.03-0.4-0.08-0.63-0.14c0.02,0.15,0.04,0.29,0.05,0.4c0.02,0.18,0.06,0.39,0.1,0.63
				c0.35,2.17,1.08,6.63-2.13,9.94c-1.4,1.45-3.32,2.38-5.67,2.76C195.99,282.2,195.1,282.28,193.95,282.1z"/>
			<path class="st3" d="M207.75,262.73c0.61-5.55-6.28-9.31-8.88-10.73l-0.34-0.19c-0.28-0.16-0.51-0.5-0.74-0.83
				c-0.35-0.51-0.87-1.29-1.92-1.45c-0.56-0.09-1.94-0.09-2.73,1.86c-0.28,0.7-0.66,1.65,1.07,12.26c0.21,1.27,0.41,2.47,0.59,3.5
				c-1.1,0.01-2.22,0.29-3.14,0.81c-2.08,1.16-4.06,4.5-1.97,8.32c1.02,1.86,2.67,3.06,4.66,3.38c0.86,0.14,1.51,0.06,1.7,0.03
				c1.81-0.29,3.25-0.97,4.28-2.04c2.33-2.4,1.79-5.77,1.46-7.77c-0.05-0.29-0.09-0.55-0.12-0.77c-0.06-0.51-0.21-1.48-0.39-2.66
				c-0.22-1.43-0.64-4.09-0.87-6.09c0.51,0.18,1.12,0.42,1.9,0.76c0.13,0.07,0.56,0.49,0.96,2.75c0.1,0.6,0.35,2,1.86,2.24
				l1.61-0.41C207.5,265.09,207.56,264.54,207.75,262.73z"/>
			<g>
				<path class="st2" d="M205.67,262.5c-0.48,4.42,0.12-2.12-2.51-3.3c-2.63-1.18-3.51-1.15-4.65-1.9
					c-1.15-0.75,0.83,9.87,1.08,12.03c0.18,1.6,1.13,4.89-0.77,6.85c-0.65,0.67-1.63,1.19-3.1,1.43c0,0-2.69,0.41-4.19-2.34
					c-1.51-2.76,0.03-4.85,1.16-5.48c1.13-0.63,2.62-0.65,3.4-0.35c0.78,0.3,1.47,1.23,1.34,0.5c0,0-0.56-3.04-1.14-6.62
					c-0.76-4.66-1.55-10.23-1.19-11.14c0.65-1.6,0.79,0.56,2.43,1.48C199.16,254.56,206.16,258.07,205.67,262.5z"/>
				<path class="st4" d="M196.79,263.74c2.56,4.25,2.06,5.44,1.45,8.75c-0.25,1.37,0.09,2.65,0.58,3.69
					c-0.65,0.67-1.63,1.19-3.1,1.43c0,0-2.69,0.41-4.19-2.34c-1.51-2.76,0.03-4.85,1.16-5.48c1.13-0.63,2.62-0.65,3.4-0.35
					c0.78,0.3,1.47,1.23,1.34,0.5c0,0-0.56-3.04-1.14-6.62C196.49,263.39,196.67,263.54,196.79,263.74z"/>
			</g>
		</g>
	</g>
	<g>
		<radialGradient id="SVGID_3_" cx="346.8723" cy="607.9787" r="390.0581" gradientUnits="userSpaceOnUse">
			<stop  offset="0.5082" style="stop-color:#EF492A"/>
			<stop  offset="1" style="stop-color:#FEC012"/>
		</radialGradient>
		<path class="st5" d="M0,108.71l0,449.17c140.02,0,180.09-115.92,174.49-193.25C163.13,207.64,0,108.71,0,108.71z"/>
		<linearGradient id="SVGID_4_" gradientUnits="userSpaceOnUse" x1="-154.433" y1="-150.9499" x2="190.2478" y2="228.965">
			<stop  offset="0" style="stop-color:#FFF33B"/>
			<stop  offset="0.0595" style="stop-color:#FFE029"/>
			<stop  offset="0.1303" style="stop-color:#FFD217"/>
			<stop  offset="0.2032" style="stop-color:#FEC90E"/>
			<stop  offset="0.2809" style="stop-color:#FDC70C"/>
			<stop  offset="0.6685" style="stop-color:#F3903F"/>
			<stop  offset="0.8876" style="stop-color:#ED683C"/>
			<stop  offset="1" style="stop-color:#E93E3A"/>
		</linearGradient>
		<path class="st6" d="M0,0l333.3,0C169.68,30.96,132.06,82.54,116.4,173.73c-8.38,48.78,2.72,87.95-4.34,126.38
			C96.27,386.14,37.37,403.72,0,405.91L0,0z"/>
	</g>
</g>
</svg>
